<svg xmlns="http://www.w3.org/2000/svg" width="50" height="50" viewBox="0 0 50 50">
  <path
      d="M 9.9375 0.53125 L 0.53125 9.9375 L 15.46875 24.8125 L 24.84375 15.4375 L 23.40625 14 L 19.71875 17.71875 L 18.28125 16.28125 L 22 12.59375 L 20.40625 11 L 17.71875 13.71875 L 16.28125 12.28125 L 19 9.59375 L 17.40625 8 L 13.71875 11.71875 L 12.28125 10.28125 L 16 6.59375 L 14.40625 5 L 11.71875 7.71875 L 10.28125 6.28125 L 13 3.59375 L 9.9375 0.53125 z M 43.125 2 C 41.879 2 40.6385 2.4875 39.6875 3.4375 L 37.90625 5.1875 L 20.375 22.71875 L 16.875 26.21875 L 4.4375 38.6875 A 1.0001 1.0001 0 0 0 4.03125 39.25 L 2.03125 46.75 A 1.0001 1.0001 0 0 0 3.25 47.96875 L 10.75 45.96875 A 1.0001 1.0001 0 0 0 11.1875 45.6875 L 11.25 45.65625 A 1.0001 1.0001 0 0 0 11.375 45.5 L 44.8125 12.09375 C 44.812554 12.093705 44.812168 12.062823 44.8125 12.0625 L 45.46875 11.40625 C 45.985924 10.88873 46.5625 10.3125 46.5625 10.3125 C 48.4615 8.4115 48.4595 5.3375 46.5625 3.4375 C 45.6095 2.4865 44.37 2 43.125 2 z M 43.125 4 C 43.891 4 44.61525 4.30275 45.15625 4.84375 C 46.27325 5.96175 46.27425 7.78825 45.15625 8.90625 C 45.02625 9.03425 44.9225 9.14 44.8125 9.25 L 40.75 5.1875 L 41.09375 4.84375 C 41.63675 4.30175 42.358 4 43.125 4 z M 35.40625 25.78125 L 32.71875 28.46875 L 31.875 27.625 L 25.15625 34.34375 L 40.0625 49.25 L 49.46875 39.84375 L 47.40625 37.78125 L 44.71875 40.46875 L 43.28125 39.0625 L 46 36.34375 L 44.40625 34.78125 L 40.71875 38.46875 L 39.28125 37.0625 L 43 33.34375 L 41.40625 31.78125 L 38.71875 34.46875 L 37.28125 33.0625 L 40 30.34375 L 38.40625 28.78125 L 34.71875 32.46875 L 33.28125 31.0625 L 37 27.34375 L 35.40625 25.78125 z M 5.53125 41.4375 L 8.5625 44.46875 L 4.40625 45.59375 L 5.53125 41.4375 z"/>
</svg>