<?xml version="1.0" standalone="no"?>
<!DOCTYPE svg PUBLIC "-//W3C//DTD SVG 20010904//EN"
 "http://www.w3.org/TR/2001/REC-SVG-20010904/DTD/svg10.dtd">
<svg version="1.0" xmlns="http://www.w3.org/2000/svg"
 width="260.000000pt" height="260.000000pt" viewBox="0 0 260.000000 260.000000"
 preserveAspectRatio="xMidYMid meet">
<metadata>
Created by potrace 1.11, written by Peter Selinger 2001-2013
</metadata>
<g transform="translate(0.000000,260.000000) scale(0.100000,-0.100000)"
fill="#000000" stroke="none">
<path d="M0 1300 l0 -1300 1300 0 1300 0 0 1300 0 1300 -1300 0 -1300 0 0
-1300z m1814 675 c99 -17 184 -59 214 -104 51 -77 18 -271 -78 -467 -56 -115
-116 -196 -160 -219 -28 -14 -33 -14 -71 5 -102 52 -195 197 -271 422 -37 111
-41 133 -42 224 -1 110 10 138 58 147 51 10 278 5 350 -8z m-669 -32 c-39
-100 -27 -215 41 -416 84 -245 197 -453 294 -540 47 -42 120 -77 162 -77 25 0
23 -8 -17 -75 -73 -121 -216 -274 -320 -343 -61 -40 -145 -66 -185 -57 -84 18
-207 137 -300 290 -97 157 -239 485 -285 655 -69 257 -35 376 128 454 117 56
363 123 456 125 28 1 32 -2 26 -16z"/>
</g>
</svg>
