<svg xmlns="http://www.w3.org/2000/svg" version="1.1" width="400" height="400">
  <g>
    <path
        d="M226.927 93.255 C 212.601 97.163,211.696 118.313,224.293 154.800 C 236.090 188.968,249.546 209.146,265.935 217.246 L 271.897 220.193 275.503 218.447 C 298.285 207.418,325.659 135.525,315.474 113.470 C 311.284 104.395,301.398 98.862,282.154 94.818 C 268.967 92.048,234.889 91.083,226.927 93.255 M170.800 96.801 C 167.873 97.351,163.223 98.162,152.400 100.013 C 138.054 102.466,112.698 110.484,101.200 116.202 C 75.762 128.854,70.595 143.733,78.722 180.930 C 82.221 196.940,90.456 218.961,105.449 252.398 C 126.776 299.960,151.113 330.069,172.339 335.150 C 188.347 338.982,217.835 317.825,242.516 284.800 C 248.866 276.303,256.800 263.271,256.800 261.338 C 256.800 261.164,254.730 260.827,252.200 260.588 C 229.272 258.425,209.088 233.677,188.840 182.904 C 172.007 140.695,168.300 115.496,176.533 99.257 C 178.199 95.972,177.290 95.583,170.800 96.801"
        stroke="none" fill="#ffffff" fill-rule="evenodd"/>
    <path
        d="M0.000 200.000 L 0.000 400.000 200.000 400.000 L 400.000 400.000 400.000 200.000 L 400.000 0.000 200.000 0.000 L 0.000 0.000 0.000 200.000 M270.554 93.180 C 279.955 94.352,281.377 94.592,288.000 96.122 C 319.794 103.464,325.212 122.291,308.801 168.400 C 301.231 189.670,285.211 213.747,275.503 218.447 L 271.897 220.193 265.935 217.246 C 247.070 207.922,230.191 179.310,219.187 138.000 C 213.928 118.257,214.782 99.732,221.144 95.563 C 226.609 91.983,251.379 90.788,270.554 93.180 M177.112 96.657 C 177.335 97.019,177.075 98.189,176.533 99.257 C 168.300 115.496,172.007 140.695,188.840 182.904 C 209.088 233.677,229.272 258.425,252.200 260.588 C 254.730 260.827,256.800 261.164,256.800 261.338 C 256.800 263.271,248.866 276.303,242.516 284.800 C 217.835 317.825,188.347 338.982,172.339 335.150 C 151.113 330.069,126.776 299.960,105.449 252.398 C 90.456 218.961,82.221 196.940,78.722 180.930 C 70.595 143.733,75.762 128.854,101.200 116.202 C 112.698 110.484,138.054 102.466,152.400 100.013 C 163.223 98.162,167.873 97.351,170.800 96.801 C 175.378 95.941,176.651 95.912,177.112 96.657"
        stroke="none" fill="#ff8700" fill-rule="evenodd"/>
  </g>
</svg>